<?xml version="1.0" standalone="no"?><!DOCTYPE svg PUBLIC "-//W3C//DTD SVG 1.1//EN" "http://www.w3.org/Graphics/SVG/1.1/DTD/svg11.dtd"><svg t="1606655613653" class="icon" viewBox="0 0 1024 1024" version="1.1" xmlns="http://www.w3.org/2000/svg" p-id="6082" width="128" height="128" xmlns:xlink="http://www.w3.org/1999/xlink"><defs><style type="text/css"></style></defs><path d="M875.008 445.568c18.176 9.792 30.336 23.296 36.608 40.64 6.208 17.344 6.208 34.688 0 52.032-6.272 17.344-18.432 30.912-36.608 40.64L276.096 917.12c-17.024 9.728-35.2 12.992-54.4 9.728a83.072 83.072 0 0 1-48.512-25.984 71.68 71.68 0 0 1-19.584-50.432V174.08c0-21.632 6.784-39.296 20.416-52.8 13.632-13.568 30.08-21.696 49.344-24.384 19.264-2.752 36.864 0.832 52.736 10.56l598.912 338.112z m-639.744 386.944c0 4.288 1.728 7.296 5.12 8.96a13.44 13.44 0 0 0 10.24 0.768l568.256-321.92c3.392-2.112 5.12-4.8 5.12-8.064 0-3.264-1.728-5.952-5.12-8.128l-568.32-321.92a13.44 13.44 0 0 0-10.24 0.832c-3.328 1.6-5.056 4.096-5.056 7.296v642.176z" fill="#1296db" p-id="6083"></path></svg>