<?xml version="1.0" standalone="no"?><!DOCTYPE svg PUBLIC "-//W3C//DTD SVG 1.1//EN" "http://www.w3.org/Graphics/SVG/1.1/DTD/svg11.dtd"><svg t="1607174241327" class="icon" viewBox="0 0 1024 1024" version="1.1" xmlns="http://www.w3.org/2000/svg" p-id="27349" xmlns:xlink="http://www.w3.org/1999/xlink" width="128" height="128"><defs><style type="text/css"></style></defs><path d="M935.611 891.005c0.682 49.216-42.674 85.3-88.374 75.513-14.934-3.198-27.612-10.857-38.46-21.804-29.407-29.677-59.045-59.125-88.588-88.668-57.97-57.97-115.921-115.96-173.91-173.911-73.74-73.693-147.523-147.343-221.26-221.038-34.987-34.967-69.87-70.037-104.925-104.935-3.341-3.326-3.259-5.365 0.026-8.63 31.447-31.259 62.838-62.576 94.01-94.109 4.33-4.38 6.663-3.891 10.777 0.237 55.833 56.032 111.852 111.879 167.81 167.786 43.153 43.114 86.288 86.246 129.425 129.377 43.134 43.128 86.272 86.251 129.384 129.401 48.117 48.159 96.209 96.343 144.302 144.525 6.949 6.961 13.958 13.868 20.739 20.99 12.651 13.29 18.67 29.319 19.044 45.266z" p-id="27350" fill="#e6e6e6"></path><path d="M372.488 255.57c-8.67-8.586-16.596-16.418-24.502-24.271-8.37-8.314-16.822-16.549-25.019-25.03-2.566-2.655-4.229-2.536-6.72-0.038-39.442 39.552-78.945 79.043-118.436 118.547-7.229 7.232-14.452 14.471-21.698 21.686-5.442 5.419-5.527 5.476 0.053 11.058 13.354 13.359 26.798 26.627 40.172 39.967 6.05 6.035 5.982 6.039-0.268 11.701a103097.462 103097.462 0 0 0-84.877 76.966c-9.07 8.235-20.37 8.294-29.05-0.345-30.793-30.645-61.508-61.369-92.189-92.126-7.892-7.911-8.153-18.818-0.654-27.058 45.321-49.801 90.72-99.53 136.043-149.329 24.112-26.493 48.41-52.828 72.006-79.776 6.974-7.964 16.168-10.11 24.992-13.517 40.487-15.634 81.074-31.009 121.642-46.432 16.144-6.138 32.363-12.082 48.488-18.268 8.168-3.133 15.073-1.325 21.023 4.73 6.256 6.367 7.023 14.247 4.1 21.987-15.883 42.064-32.14 83.987-48.207 125.982-4.7 12.285-9.177 24.656-13.806 36.969-0.685 1.824-1.648 3.541-3.093 6.597zM240.311 977.559c-69.864-0.319-126.828-44.044-144.17-107.399-20.1-73.429 20.085-148.365 92.395-171.633 19.091-6.143 38.816-9.101 58.861-5.559 7.799 1.378 13.075-0.815 18.625-6.427 34.079-34.462 68.602-68.485 102.795-102.834 3.97-3.989 6.174-3.651 9.895 0.262 10.995 11.563 22.303 22.839 33.767 33.939 3.577 3.464 4.176 5.623 0.319 9.458a39955.008 39955.008 0 0 0-139.662 139.581c-3.122 3.135-5.554 3.056-9.234 1.445-39.011-17.08-82.463 1.124-97.153 41.171-15.6 42.528 11.716 86.601 53.459 95.123 34.081 6.957 68.739-12.743 81.246-44.191 6.936-17.44 6.663-35.057 0.079-52.47-1.612-4.263-0.871-6.83 2.156-9.849a75970.464 75970.464 0 0 0 140.802-140.782c2.653-2.659 4.527-3.018 7.295-0.217 11.216 11.35 22.473 22.666 33.961 33.738 3.747 3.611 3.531 5.848-0.152 9.486-35.205 34.763-70.223 69.715-105.295 104.612-3.186 3.17-5.807 5.851-5.141 11.516 5.814 49.434-8.436 91.915-45.754 125.601-26.409 23.84-57.96 34.912-89.094 35.429z m307.254-571.237c1.852-2.021 3.478-3.94 5.253-5.71 22.867-22.808 45.717-45.632 68.685-68.338 2.777-2.745 3.224-5.056 1.842-8.8-10.975-29.719-14.922-60.598-10.825-91.846C622.58 154.9 662.73 99.331 732.98 66.372c31.822-14.929 65.712-19.961 100.708-17.216 4.639 0.364 9.619 1.004 13.698 3.02 13.319 6.587 15.242 22.607 4.298 33.655-14.826 14.967-29.807 29.78-44.729 44.651-20.918 20.846-41.883 41.645-62.738 62.554-5.673 5.688-7.782 12.41-5.578 20.519 5.772 21.241 11.134 42.594 16.98 63.814 1.259 4.572-0.195 7.314-3.247 10.356-41.867 41.722-83.65 83.528-125.45 125.316-10.869 10.866-21.821 21.65-32.527 32.674-3.064 3.155-4.925 3.078-8.01-0.084-11.818-12.112-23.942-23.925-35.931-35.871-0.945-0.94-1.727-2.045-2.889-3.438z m270.211 53.167c-24.485 0.164-48.233-3.679-71.09-12.504-4.136-1.597-6.845-0.334-9.843 2.684-22.751 22.896-45.759 45.537-68.444 68.498-3.735 3.78-6.01 3.664-9.532 0.04-11.108-11.43-22.408-22.676-33.764-33.86-2.973-2.928-2.601-4.995 0.217-7.805 43.786-43.654 87.493-87.388 131.223-131.1 9.051-9.048 18.263-17.941 27.098-27.195 2.968-3.109 5.713-4.129 9.862-2.982 19.517 5.396 39.164 10.33 58.613 15.956 10.605 3.067 19.247 1.88 27.422-6.359 34.839-35.114 70.001-69.908 105.118-104.745 11.882-11.788 29.196-9.126 34.808 5.534 1.786 4.666 2.317 9.999 2.503 15.061 2.789 76.131-26.028 137.253-87.928 181.958-34.54 24.945-73.785 36.313-116.263 36.819z" p-id="27351" fill="#e6e6e6"></path></svg>